<svg width="1440" height="431" viewBox="0 0 1440 431" fill="none" xmlns="http://www.w3.org/2000/svg">
<path d="M1033.73 53.6356L1038.36 45.8876H1025.65L1021.02 53.6356H1033.73Z" fill="black" fill-opacity="0.1"/>
<path d="M1015.71 53.6356L1020.25 45.8876H1011.76L1007.14 53.6356H1015.71Z" fill="black" fill-opacity="0.1"/>
<path d="M1002.51 53.6356L1007.14 45.8876H1001.39L996.766 53.6356H1002.51Z" fill="black" fill-opacity="0.1"/>
<path d="M175.08 21.4142H142.654L136.911 31.0206H180.794L175.08 21.4142Z" fill="black" fill-opacity="0.1"/>
<path d="M194.736 31.0206L188.993 21.4142H180.508L186.165 31.0206H194.736Z" fill="black" fill-opacity="0.1"/>
<path d="M205.106 31.0206L199.364 21.4142H193.622L199.364 31.0206H205.106Z" fill="black" fill-opacity="0.1"/>
<path d="M36.4038 34.48L34.0612 30.3344L17.548 1.14362H17.1766H-38.3624L-19.5066 34.48H36.4038Z" fill="black" fill-opacity="0.1"/>
<path d="M128.34 52.0345L136.14 38.4827H341.411L349.211 52.0345H506.857L514.685 38.4827H592.537L602.079 55.0651H987.738L997.309 38.4827H2045.86L2053.69 52.0345H2099.15L2106.95 38.4827H2475.86L2482.89 50.3763H2533L2532.74 50.8337H2541.14L2552.2 31.8211H2543.83L2534.69 47.5172H2484.52L2477.49 35.6236H2108.23L2108.49 35.1948H2095.43L2087.35 49.1755H2055.35L2047.52 35.6236H995.651L986.109 52.206H603.736L594.508 36.1954L594.165 35.6236H513.028L505.2 49.1755H350.868L343.068 35.6236H134.511L126.683 49.1755H71.7728L43.9176 0H26.9759L56.3453 51.9773L128.34 52.0345Z" fill="black" fill-opacity="0.1"/>
<path d="M3383 208.052L3382.97 8.06249H2707.45L2699.3 22.1575H2671.22L2649.74 59.4394H2477.23L2469.44 45.8876H2109.37L2101.55 59.4394H2050.64L2042.81 45.8876H1043.42L1035.59 59.4394H596.679L588.88 45.8876H518.228L510.428 59.4394H345.525L337.726 45.8876H140.339L132.54 59.4394H50.8315L43.032 45.8876H-28.1345L-53.9899 1.14362H-731V222.948L-730.971 422.938H-55.4469L-47.3046 408.814H-19.2208L2.26343 371.532H174.766L182.565 385.112H542.626L550.454 371.532H601.365L609.193 385.112H1608.58L1616.41 371.532H2055.32L2063.12 385.112H2133.77L2141.57 371.532H2306.47L2314.27 385.112H2511.66L2519.46 371.532H2601.17L2608.97 385.112H2680.13L2705.99 429.856H3383V208.052Z" fill="black" fill-opacity="0.1"/>
<path d="M11.0343 381.281L-4.16467 408.071H39.4323L45.1176 398.035H63.4306L73.2299 381.281H11.0343Z" fill="black" fill-opacity="0.1"/>
<path d="M80.2866 381.281L70.5444 398.035H83.3149L93.0857 381.281H80.2866Z" fill="black" fill-opacity="0.1"/>
<path d="M98.3996 381.281L88.6573 398.035H97.2282L106.97 381.281H98.3996Z" fill="black" fill-opacity="0.1"/>
<path d="M2523.66 378.966L2515.86 392.517H2310.59L2302.79 378.966H2145.14L2137.32 392.517H2059.46L2049.92 375.935H1664.26L1654.69 392.517H606.136L598.308 378.966H552.854L545.054 392.517H176.137L169.109 380.624H118.998L119.255 380.166H110.856L99.7994 399.179H108.17L117.313 383.483H167.48L174.509 395.376H543.769L543.512 395.805H556.568L564.653 381.825H596.651L604.479 395.376H1656.35L1665.89 378.794H2048.26L2057.49 394.805L2057.83 395.376H2138.97L2146.8 381.825H2301.13L2308.93 395.376H2517.49L2525.32 381.825H2580.23L2608.08 431H2625.02L2595.65 379.023L2523.66 378.966Z" fill="black" fill-opacity="0.1"/>
</svg>
